<?xml version="1.0" encoding="UTF-8" standalone="no" ?>
<!DOCTYPE svg PUBLIC "-//W3C//DTD SVG 1.1//EN" "http://www.w3.org/Graphics/SVG/1.1/DTD/svg11.dtd">
<svg xmlns="http://www.w3.org/2000/svg" xmlns:xlink="http://www.w3.org/1999/xlink" version="1.1" width="1280" height="1024" viewBox="0 0 1280 1024" xml:space="preserve">
<desc>Created with Fabric.js 5.3.0</desc>
<defs>
</defs>
<g transform="matrix(1 0 0 1 640 512)" id="background-logo"  >
<rect style="stroke: none; stroke-width: 0; stroke-dasharray: none; stroke-linecap: butt; stroke-dashoffset: 0; stroke-linejoin: miter; stroke-miterlimit: 4; fill: rgb(255,255,255); fill-opacity: 0; fill-rule: nonzero; opacity: 1;"  paint-order="stroke"  x="-640" y="-512" rx="0" ry="0" width="1280" height="1024" />
</g>
<g transform="matrix(3.637102494827822 0 0 3.637102494827822 640 369.5114113734029)" id="logo-logo"  >
<g style=""  paint-order="stroke"   >
		<g transform="matrix(1.9409573915992513 0 0 1.9409573915992513 33.798234748222455 15.763644808475192)"  >
<linearGradient id="SVGID_546_551306" gradientUnits="userSpaceOnUse" gradientTransform="matrix(1 0 0 1 0 0)"  x1="438.1660156" y1="278.8095703" x2="410.5793762" y2="242.5665894">
<stop offset="0%" style="stop-color:rgb(130,43,99);stop-opacity: 1"/>
<stop offset="100%" style="stop-color:rgb(246,46,91);stop-opacity: 1"/>
</linearGradient>
<path style="stroke: none; stroke-width: 1; stroke-dasharray: none; stroke-linecap: butt; stroke-dashoffset: 0; stroke-linejoin: miter; stroke-miterlimit: 4; fill: url(#SVGID_546_551306); fill-rule: evenodd; opacity: 1;"  paint-order="stroke"  transform=" translate(-416.24789387153504, -257.5830078)" d="M 416.4658203 227.8330078 C 422.9570312 230.4980469 433.4453125 229.84570309999998 436.1103516 235.203125 C 436.9033204 236.7910156 431.2910157 243.6503906 431.8300782 245.3515625 C 434.6357423 254.3085938 434.154297 264.4287109 433.1337891 271.5712891 C 426.6708985 276.9863282 420.2080078 282.3720704 413.7167969 287.7578125 C 416.9199219 278.5449219 410.34375 276.8720703 403.3417969 270.1826172 C 419.6689453 260.0068359 418.1386719 243.73535159999997 402.3212891 239.6542969 C 401.1015625 237.24414059999998 395.546875 233.33203129999998 396.3964844 231.0078125 C 397.2753907 228.6269531 404.6171875 227.8613281 405.4394532 227.4082031 C 410.03125 228.1738281 411.8740234 227.0683594 416.4658203 227.8330078 L 416.4658203 227.8330078 z" stroke-linecap="round" />
</g>
		<g transform="matrix(1.9409573915992513 0 0 1.9409573915992513 43.422677540723384 -10.151169018251352)"  >
<linearGradient id="SVGID_547_551307" gradientUnits="userSpaceOnUse" gradientTransform="matrix(1 0 0 1 0 0)"  x1="395.7294922" y1="244.2314453" x2="446.6835938" y2="244.2314453">
<stop offset="0%" style="stop-color:rgb(217,252,187);stop-opacity: 1"/>
<stop offset="100%" style="stop-color:rgb(246,46,91);stop-opacity: 1"/>
</linearGradient>
<path style="stroke: none; stroke-width: 1; stroke-dasharray: none; stroke-linecap: butt; stroke-dashoffset: 0; stroke-linejoin: miter; stroke-miterlimit: 4; fill: url(#SVGID_547_551307); fill-rule: evenodd; opacity: 1;"  paint-order="stroke"  transform=" translate(-421.2064997812562, -244.23144535)" d="M 412.9794922 213.9433594 C 428.0878906 216.9199219 441.46777349999996 228.8251953 446.6835938 247.5625 C 442.828125 254.6484375 437.72558599999996 267.8867188 432.53808599999996 274.5195313 C 432.70898439999996 268.765625 432.1982422 260.23339849999996 429.93066409999994 251.98437499999997 L 429.93066409999994 251.98437499999997 L 436.56347659999994 234.29589839999997 L 414.76562499999994 227.23828119999996 L 413.85839839999994 229.64746089999997 C 410.57031249999994 228.08789059999998 406.68652339999994 227.23828119999996 402.1503905999999 227.32226559999998 C 400.13867179999994 227.3789062 401.3007811999999 226.50097649999998 399.0332030999999 226.78417969999998 C 400.1669921999999 224.9980469 394.7519530999999 220.77539059999998 395.8867186999999 218.96093749999997 C 400.0527344 217.0898438 408.8125 215.8144531 412.9794922 213.9433594 L 412.9794922 213.9433594 z" stroke-linecap="round" />
</g>
		<g transform="matrix(1.9409573915992513 0 0 1.9409573915992513 -5.684342e-14 29.600548282526546)"  >
<linearGradient id="SVGID_548_551308" gradientUnits="userSpaceOnUse" gradientTransform="matrix(1 0 0 1 0 0)"  x1="333.8549805" y1="298.6347656" x2="411.104187" y2="242.1491852">
<stop offset="30.99287%" style="stop-color:rgb(130,43,99);stop-opacity: 1"/>
<stop offset="100%" style="stop-color:rgb(246,46,91);stop-opacity: 1"/>
</linearGradient>
<path style="stroke: none; stroke-width: 1; stroke-dasharray: none; stroke-linecap: butt; stroke-dashoffset: 0; stroke-linejoin: miter; stroke-miterlimit: 4; fill: url(#SVGID_548_551308); fill-rule: evenodd; opacity: 1;"  paint-order="stroke"  transform=" translate(-398.8347168, -264.71191415000004)" d="M 350.9858398 235.9121094 C 358.9794921 279.2822266 388.5732421 291.8681641 401.953125 296.459961 C 419.1025391 287.9277344 439.7666016 275.05859380000004 446.6835938 247.56250010000002 C 441.32617189999996 237.32910170000002 438.2080079 235.03320320000003 435.51464849999996 232.96386730000003 C 418.9892578 279.9335938 371.9619141 289.3164063 350.9858398 235.9121094 L 350.9858398 235.9121094 z" stroke-linecap="round" />
</g>
		<g transform="matrix(1.9409573915992513 0 0 1.9409573915992513 3.5762709611211108 -42.5844915286323)"  >
<linearGradient id="SVGID_549_551309" gradientUnits="userSpaceOnUse" gradientTransform="matrix(1 0 0 1 0 0)"  x1="488.5585938" y1="215.3911133" x2="387.254425" y2="231.2931671">
<stop offset="0%" style="stop-color:rgb(217,252,187);stop-opacity: 1"/>
<stop offset="100%" style="stop-color:rgb(246,46,91);stop-opacity: 1"/>
</linearGradient>
<path style="stroke: none; stroke-width: 1; stroke-dasharray: none; stroke-linecap: butt; stroke-dashoffset: 0; stroke-linejoin: miter; stroke-miterlimit: 4; fill: url(#SVGID_549_551309); fill-rule: evenodd; opacity: 1;"  paint-order="stroke"  transform=" translate(-400.6772461500001, -227.52148425000001)" d="M 422.0214844 203.2001953 C 415.0205078 221.8808594 409.578125 214.3125 398.86328130000004 220.4345703 C 403.22851570000006 219.5 435.5996094 217.5429687 446.68359380000004 247.5625 C 441.63769540000004 237.0742187 430.07226570000006 231.7167969 417.03320320000006 229.6191406 C 420.83105480000006 233.671875 423.63769540000004 239.7675781 424.62988290000004 248.5253906 C 418.79003910000006 236.22363280000002 409.3515626 231.80175780000002 400.67675790000004 232.0849609 C 407.31054700000004 233.984375 413.43261730000006 239.7382812 414.33984380000004 249.6035156 C 408.47265630000004 233.5878906 379.55859380000004 236.734375 374.31494150000003 252.5800781 C 369.77929700000004 249.9716797 367.709961 246.9384765 367.34179700000004 242.3183593 C 370.34619150000003 244.3593749 376.86621110000004 238.0947265 383.35742200000004 233.2187499 C 370.6015626 233.81445300000001 360.25488290000004 237.47070300000001 361.19042980000006 241.1845702 C 356.71142590000005 239.1718749 354.8125001000001 234.7499999 354.6708985000001 230.6396483 C 356.8818360000001 232.4257811 359.3476563000001 230.83789050000001 362.0126954000001 229.9873045 C 363.91162120000007 229.3925779 365.9526368000001 228.4570311 367.7949220000001 227.6064451 C 371.1118165000001 226.1035154 372.0468751000001 225.0546873 373.2944337000001 218.4785154 C 380.0976564000001 211.4492185 394.24218760000014 204.3056638 407.9335939000001 202.4628904 C 404.92968760000014 204.5605467 402.23632830000014 206.8847654 399.65625010000014 209.26562479999998 C 400.5351564000001 207.67871069999998 401.41406260000014 206.09179669999997 402.32128920000014 204.47558569999998 C 395.40429700000016 207.791992 391.20898450000016 211.9306638 389.14062510000014 216.69335909999998 C 398.6933594 206.1191406 414.453125 213.8583984 422.0214844 203.2001953 L 422.0214844 203.2001953 z M 385.5117188 218.3369141 L 377.659668 222.6171875 L 377.0078125 223.9492188 L 373.8896484 226.21679690000002 C 375.8173828 225.5654297 377.7446289 224.91406250000003 379.671875 224.2617188 C 383.3574219 223.0703125 384.9160156 220.9453125 385.5117188 218.3369141 L 385.5117188 218.3369141 z" stroke-linecap="round" />
</g>
</g>
</g>
<g transform="matrix(1.9211538461538462 0 0 1.9211538461538462 635.6027430837531 894.0374578757594)" id="text-logo"  >
<g style=""  paint-order="stroke"   >
		<g transform="matrix(1 0 0 1 0 0)" id="text-logo-path-0"  >
<linearGradient id="SVGID_551310" gradientUnits="userSpaceOnUse" gradientTransform="matrix(1 0 0 1 0.22999999999998977 -82.16)"  x1="182.87424158859048" y1="-21.027016455827948" x2="182.87424158859048" y2="111.60962859879803">
<stop offset="0%" style="stop-color:rgb(155,43,97);stop-opacity: 1"/>
<stop offset="100%" style="stop-color:rgb(246,46,91);stop-opacity: 1"/>
</linearGradient>
<filter id="SVGID_551304" y="-20%" height="140%" x="-21.653210169949936%" width="143.3064203398999%" >
	<feGaussianBlur in="SourceAlpha" stdDeviation="0"></feGaussianBlur>
	<feOffset dx="5.971064491825182" dy="0" result="oBlur" ></feOffset>
	<feFlood flood-color="rgb(223,206,200)" flood-opacity="1"/>
	<feComposite in2="oBlur" operator="in" />
	<feMerge>
		<feMergeNode></feMergeNode>
		<feMergeNode in="SourceGraphic"></feMergeNode>
	</feMerge>
</filter>
<path style="stroke: rgb(255,255,255); stroke-width: 7.572745935177046; stroke-dasharray: none; stroke-linecap: butt; stroke-dashoffset: 0; stroke-linejoin: miter; stroke-miterlimit: 4; fill: url(#SVGID_551310); fill-rule: nonzero; opacity: 1;filter: url(#SVGID_551304);"  paint-order="stroke"  transform=" translate(-180.82, 40.61)" d="M 17.25 -82.16 L 0.23 0 L 20.19 0 L 21.71 -11.15 L 32.75 -11.15 L 34.27 0 L 54.23 0 L 37.21 -82.16 Z M 23.83 -26.41 L 27.23 -51.88 L 30.64 -26.41 Z M 129.7 -17.72 L 129.7 -63.5 C 129.7 -76.41 119.26 -82.16 106.34 -82.16 L 82.75 -82.16 L 82.75 0 L 106.58 0.23 C 104.11 -2.82 102.71 -6.93 102.71 -12.44 L 103.53 -12.44 C 103.53 -3.17 109.63 0.94 116.44 0.94 C 125.48 0.94 129.7 -4.81 129.7 -17.72 Z M 102.71 -21.01 L 102.71 -64.56 L 106.23 -64.56 C 108.22 -64.56 109.75 -63.62 109.75 -61.74 L 109.75 -19.48 C 109.75 -17.61 108.69 -16.67 106.93 -16.67 C 104.94 -16.67 102.71 -18.31 102.71 -21.01 Z M 202.36 0 L 188.27 0 L 178.88 -43.43 L 178.3 -43.43 L 181.82 0 L 161.86 0 L 161.86 -82.16 L 181.82 -82.16 L 195.32 -20.42 L 208.81 -82.16 L 228.77 -82.16 L 228.77 0 L 208.81 0 L 212.34 -43.43 L 211.75 -43.43 Z M 261.63 0 L 281.59 0 L 281.59 -82.16 L 261.63 -82.16 Z M 340.86 0 L 331.47 -43.43 L 330.89 -43.43 L 334.41 0 L 314.45 0 L 314.45 -82.16 L 335 -82.16 L 344.39 -38.73 L 344.97 -38.73 L 341.45 -82.16 L 361.41 -82.16 L 361.41 0 Z" stroke-linecap="round" />
</g>
</g>
</g>
</svg>